<?xml version="1.0" encoding="utf-8"?>
<!-- Generator: Adobe Illustrator 22.1.0, SVG Export Plug-In . SVG Version: 6.00 Build 0)  -->
<svg version="1.1" id="Layer_1" xmlns="http://www.w3.org/2000/svg" xmlns:xlink="http://www.w3.org/1999/xlink" x="0px" y="0px"
	 viewBox="0 0 288 560" style="enable-background:new 0 0 288 560;" xml:space="preserve">
<style type="text/css">
	.st0{clip-path:url(#SVGID_2_);}
	.st1{clip-path:url(#SVGID_4_);fill:#FFA000;}
</style>
<g>
	<defs>
		<rect id="SVGID_1_" width="288" height="560"/>
	</defs>
	<clipPath id="SVGID_2_">
		<use xlink:href="#SVGID_1_"  style="overflow:visible;"/>
	</clipPath>
	<g class="st0">
		<defs>
			<rect id="SVGID_3_" width="288" height="560"/>
		</defs>
		<clipPath id="SVGID_4_">
			<use xlink:href="#SVGID_3_"  style="overflow:visible;"/>
		</clipPath>
		<path class="st1" d="M192.9,272c0,0.1,0,0.1,0,0.2c-0.1-1.6-0.4-3.1-0.7-4.6C192.7,268.9,192.9,270.4,192.9,272"/>
		<path class="st1" d="M211.5,260.3c1.1,4.3,1.7,8.7,2,13.3c0-0.5,0-1.1,0-1.6C213.5,267.9,212.8,263.9,211.5,260.3"/>
		<path class="st1" d="M213.5,273.6L213.5,273.6c-0.2-4.6-0.9-9.1-2-13.3c-3.3-9.3-10.4-16.7-19.4-20.5c-4.1-1.7-8.7-2.7-13.5-2.7
			c-1.9,0-3.7,0.1-5.6,0.4c-0.4,0.1-0.9,0.1-1.3,0.2c-16,3.2-28.1,17.3-28.1,34.2c0,0.5,0,1,0,1.5c0.3,7.2,2.8,13.8,6.8,19.3
			c6.4,8.6,16.6,14.2,28.1,14.2c1.7,0,3.3-0.1,4.9-0.3c-9,12-23.3,19.8-39.5,19.8c-21.6,0-39.9-13.9-46.5-33.2
			c-8.7-3.5-16.5-8.7-23-15.1c0.5,38,31.4,68.7,69.6,68.7c38.4,0,69.6-31.1,69.6-69.6C213.6,276,213.5,274.8,213.5,273.6
			 M192.9,272.2c-0.1,7.8-6.5,14.2-14.3,14.2c-4.1,0-7.8-1.7-10.4-4.5c-2.4-2.6-3.9-6-3.9-9.9c0-7.9,6.4-14.4,14.4-14.4
			c2.6,0,5,0.7,7.1,1.9c3.1,1.8,5.4,4.6,6.5,8c0.5,1.4,0.7,2.9,0.7,4.4C192.9,272,192.9,272.1,192.9,272.2"/>
		<path class="st1" d="M174.5,223.5c0,5.7-4.6,10.3-10.3,10.3s-10.3-4.6-10.3-10.3c0-5.7,4.6-10.3,10.3-10.3
			S174.5,217.8,174.5,223.5"/>
		<path class="st1" d="M203.2,223.5c0,5.7-4.6,10.3-10.3,10.3s-10.3-4.6-10.3-10.3c0-5.7,4.6-10.3,10.3-10.3
			S203.2,217.8,203.2,223.5"/>
	</g>
</g>
</svg>
